<mxfile host="app.diagrams.net" modified="2023-07-10T22:39:18.000Z" agent="Mozilla/5.0 (Windows NT 10.0; Win64; x64) AppleWebKit/537.36 (KHTML, like Gecko) Chrome/114.0.0.0 Safari/537.36" etag="rO-u8_xfJ0P_hlQS-cEl" version="21.6.1" type="device">
  <diagram name="PÃ¡gina-1" id="7lZn9Umi4Fwdi-RlaIn1">
    <mxGraphModel dx="989" dy="549" grid="1" gridSize="10" guides="1" tooltips="1" connect="1" arrows="1" fold="1" page="1" pageScale="1" pageWidth="827" pageHeight="1169" math="0" shadow="0">
      <root>
        <mxCell id="0" />
        <mxCell id="1" parent="0" />
        <mxCell id="5mOJxnHYa7v4QOQw23hx-8" style="edgeStyle=orthogonalEdgeStyle;rounded=0;orthogonalLoop=1;jettySize=auto;html=1;exitX=1;exitY=0.5;exitDx=0;exitDy=0;entryX=0.005;entryY=0.63;entryDx=0;entryDy=0;entryPerimeter=0;" edge="1" parent="1" source="5mOJxnHYa7v4QOQw23hx-1" target="5mOJxnHYa7v4QOQw23hx-3">
          <mxGeometry relative="1" as="geometry" />
        </mxCell>
        <mxCell id="5mOJxnHYa7v4QOQw23hx-1" value="" style="shape=image;verticalLabelPosition=bottom;labelBackgroundColor=default;verticalAlign=top;aspect=fixed;imageAspect=0;image=https://conecta2.mitrol.cloud:2443/static/media/logoSanitas.6484f67c.png;" vertex="1" parent="1">
          <mxGeometry x="90" y="205.5" width="89.87" height="100" as="geometry" />
        </mxCell>
        <mxCell id="5mOJxnHYa7v4QOQw23hx-2" value="Conecta2" style="text;html=1;align=center;verticalAlign=middle;resizable=0;points=[];autosize=1;strokeColor=none;fillColor=none;" vertex="1" parent="1">
          <mxGeometry x="79.93" y="300" width="70" height="30" as="geometry" />
        </mxCell>
        <mxCell id="5mOJxnHYa7v4QOQw23hx-9" style="edgeStyle=orthogonalEdgeStyle;rounded=0;orthogonalLoop=1;jettySize=auto;html=1;exitX=0.995;exitY=0.63;exitDx=0;exitDy=0;exitPerimeter=0;" edge="1" parent="1" source="5mOJxnHYa7v4QOQw23hx-3" target="5mOJxnHYa7v4QOQw23hx-4">
          <mxGeometry relative="1" as="geometry" />
        </mxCell>
        <mxCell id="5mOJxnHYa7v4QOQw23hx-3" value="ROL" style="sketch=0;html=1;dashed=0;whitespace=wrap;fillColor=#2875E2;strokeColor=#ffffff;points=[[0.005,0.63,0],[0.1,0.2,0],[0.9,0.2,0],[0.5,0,0],[0.995,0.63,0],[0.72,0.99,0],[0.5,1,0],[0.28,0.99,0]];verticalLabelPosition=bottom;align=center;verticalAlign=top;shape=mxgraph.kubernetes.icon;prIcon=role" vertex="1" parent="1">
          <mxGeometry x="240" y="222" width="50" height="48" as="geometry" />
        </mxCell>
        <mxCell id="5mOJxnHYa7v4QOQw23hx-10" style="edgeStyle=orthogonalEdgeStyle;rounded=0;orthogonalLoop=1;jettySize=auto;html=1;entryX=0;entryY=0.5;entryDx=0;entryDy=0;entryPerimeter=0;" edge="1" parent="1" source="5mOJxnHYa7v4QOQw23hx-4" target="5mOJxnHYa7v4QOQw23hx-5">
          <mxGeometry relative="1" as="geometry" />
        </mxCell>
        <mxCell id="5mOJxnHYa7v4QOQw23hx-4" value="Rol Perfiles" style="sketch=0;outlineConnect=0;fontColor=#232F3E;gradientColor=none;fillColor=#2875E2;strokeColor=none;dashed=0;verticalLabelPosition=bottom;verticalAlign=top;align=center;html=1;fontSize=12;fontStyle=0;aspect=fixed;pointerEvents=1;shape=mxgraph.aws4.connector;" vertex="1" parent="1">
          <mxGeometry x="330" y="241" width="78" height="29" as="geometry" />
        </mxCell>
        <mxCell id="5mOJxnHYa7v4QOQw23hx-11" style="edgeStyle=orthogonalEdgeStyle;rounded=0;orthogonalLoop=1;jettySize=auto;html=1;exitX=1;exitY=0.5;exitDx=0;exitDy=0;exitPerimeter=0;" edge="1" parent="1" source="5mOJxnHYa7v4QOQw23hx-5" target="5mOJxnHYa7v4QOQw23hx-6">
          <mxGeometry relative="1" as="geometry" />
        </mxCell>
        <mxCell id="5mOJxnHYa7v4QOQw23hx-5" value="Perfil" style="verticalLabelPosition=bottom;html=1;verticalAlign=top;align=center;strokeColor=none;fillColor=#2875E2;shape=mxgraph.azure.web_roles;" vertex="1" parent="1">
          <mxGeometry x="460" y="233" width="55.00000000000001" height="45" as="geometry" />
        </mxCell>
        <mxCell id="5mOJxnHYa7v4QOQw23hx-12" style="edgeStyle=orthogonalEdgeStyle;rounded=0;orthogonalLoop=1;jettySize=auto;html=1;entryX=-0.012;entryY=0.491;entryDx=0;entryDy=0;entryPerimeter=0;" edge="1" parent="1" source="5mOJxnHYa7v4QOQw23hx-6" target="5mOJxnHYa7v4QOQw23hx-7">
          <mxGeometry relative="1" as="geometry" />
        </mxCell>
        <mxCell id="5mOJxnHYa7v4QOQw23hx-6" value="Perfiles Usuario" style="sketch=0;outlineConnect=0;fontColor=#232F3E;gradientColor=none;fillColor=#2875E2;strokeColor=none;dashed=0;verticalLabelPosition=bottom;verticalAlign=top;align=center;html=1;fontSize=12;fontStyle=0;aspect=fixed;pointerEvents=1;shape=mxgraph.aws4.connector;" vertex="1" parent="1">
          <mxGeometry x="570" y="241" width="78" height="29" as="geometry" />
        </mxCell>
        <mxCell id="5mOJxnHYa7v4QOQw23hx-7" value="" style="html=1;verticalLabelPosition=bottom;align=center;labelBackgroundColor=#ffffff;verticalAlign=top;strokeWidth=2;strokeColor=#2875E2;shadow=0;dashed=0;shape=mxgraph.ios7.icons.user;" vertex="1" parent="1">
          <mxGeometry x="690" y="215.75" width="80" height="79.5" as="geometry" />
        </mxCell>
      </root>
    </mxGraphModel>
  </diagram>
</mxfile>
